<svg xmlns="http://www.w3.org/2000/svg" width="800" height="1000" viewBox="0 0 800 1000" fill="none">
<defs>
  <linearGradient id="bgv" x1="0" y1="0" x2="1" y2="1">
    <stop offset="0" stop-color="#111827"/>
    <stop offset="1" stop-color="#050816"/>
  </linearGradient>
  <radialGradient id="halo" cx="50%" cy="34%" r="52%">
    <stop offset="0" stop-color="#7c3aed" stop-opacity="0.55"/>
    <stop offset="1" stop-color="#7c3aed" stop-opacity="0"/>
  </radialGradient>
  <linearGradient id="figure" x1="0" y1="0" x2="1" y2="1">
    <stop offset="0" stop-color="#a78bfa"/>
    <stop offset="0.55" stop-color="#7c3aed"/>
    <stop offset="1" stop-color="#06b6d4"/>
  </linearGradient>
  <pattern id="scan" width="6" height="6" patternUnits="userSpaceOnUse">
    <rect width="6" height="1" fill="#ffffff" fill-opacity="0.07"/>
  </pattern>
</defs>

<rect width="800" height="1000" fill="url(#bgv)"/>
<rect width="800" height="1000" fill="url(#halo)"/>
<circle cx="280.4" cy="254.1" r="1.6" fill="#ffffff" opacity="0.25"/><circle cx="522.6" cy="104.6" r="1.9" fill="#ffffff" opacity="0.18"/><circle cx="241.5" cy="144.7" r="2.4" fill="#ffffff" opacity="0.15"/><circle cx="533.1" cy="567.3" r="2.0" fill="#ffffff" opacity="0.23"/><circle cx="317.0" cy="289.4" r="2.5" fill="#ffffff" opacity="0.09"/><circle cx="666.9" cy="867.7" r="3.2" fill="#ffffff" opacity="0.23"/><circle cx="569.8" cy="140.3" r="2.3" fill="#ffffff" opacity="0.12"/><circle cx="373.1" cy="617.9" r="1.8" fill="#ffffff" opacity="0.09"/><circle cx="69.5" cy="969.4" r="3.4" fill="#ffffff" opacity="0.23"/><circle cx="263.8" cy="490.6" r="1.5" fill="#ffffff" opacity="0.21"/><circle cx="377.9" cy="344.5" r="2.3" fill="#ffffff" opacity="0.13"/><circle cx="691.0" cy="310.3" r="1.5" fill="#ffffff" opacity="0.21"/><circle cx="526.0" cy="346.9" r="2.6" fill="#ffffff" opacity="0.24"/><circle cx="670.8" cy="537.2" r="1.3" fill="#ffffff" opacity="0.25"/><circle cx="462.6" cy="489.5" r="1.8" fill="#ffffff" opacity="0.20"/><circle cx="723.1" cy="710.7" r="3.2" fill="#ffffff" opacity="0.11"/><circle cx="543.4" cy="1.6" r="1.8" fill="#ffffff" opacity="0.14"/><circle cx="21.2" cy="271.7" r="2.8" fill="#ffffff" opacity="0.07"/><circle cx="31.5" cy="764.7" r="2.7" fill="#ffffff" opacity="0.13"/><circle cx="621.9" cy="490.3" r="1.1" fill="#ffffff" opacity="0.15"/><circle cx="97.3" cy="987.3" r="3.3" fill="#ffffff" opacity="0.16"/><circle cx="126.9" cy="587.3" r="2.8" fill="#ffffff" opacity="0.20"/><circle cx="8.8" cy="70.8" r="2.9" fill="#ffffff" opacity="0.17"/><circle cx="169.3" cy="734.5" r="1.1" fill="#ffffff" opacity="0.09"/><circle cx="268.6" cy="945.4" r="2.2" fill="#ffffff" opacity="0.07"/><circle cx="447.2" cy="500.3" r="2.9" fill="#ffffff" opacity="0.18"/><circle cx="472.0" cy="468.5" r="3.0" fill="#ffffff" opacity="0.09"/><circle cx="480.3" cy="677.0" r="1.6" fill="#ffffff" opacity="0.18"/><circle cx="651.7" cy="557.1" r="1.2" fill="#ffffff" opacity="0.13"/><circle cx="163.6" cy="207.1" r="1.6" fill="#ffffff" opacity="0.23"/><circle cx="752.6" cy="30.0" r="2.0" fill="#ffffff" opacity="0.11"/><circle cx="72.5" cy="657.2" r="2.0" fill="#ffffff" opacity="0.23"/><circle cx="566.7" cy="948.7" r="2.9" fill="#ffffff" opacity="0.19"/><circle cx="452.6" cy="709.8" r="3.4" fill="#ffffff" opacity="0.14"/><circle cx="0.3" cy="461.7" r="1.7" fill="#ffffff" opacity="0.20"/><circle cx="585.1" cy="123.0" r="1.2" fill="#ffffff" opacity="0.21"/><circle cx="440.2" cy="707.0" r="1.7" fill="#ffffff" opacity="0.08"/><circle cx="790.9" cy="211.9" r="2.4" fill="#ffffff" opacity="0.08"/><circle cx="496.5" cy="401.7" r="1.6" fill="#ffffff" opacity="0.26"/><circle cx="760.6" cy="975.1" r="1.7" fill="#ffffff" opacity="0.21"/><circle cx="231.9" cy="511.2" r="2.3" fill="#ffffff" opacity="0.12"/><circle cx="378.6" cy="440.5" r="2.2" fill="#ffffff" opacity="0.24"/><circle cx="631.2" cy="913.2" r="1.5" fill="#ffffff" opacity="0.19"/><circle cx="46.6" cy="344.4" r="1.1" fill="#ffffff" opacity="0.22"/><circle cx="356.9" cy="113.8" r="2.1" fill="#ffffff" opacity="0.19"/><circle cx="745.9" cy="204.6" r="1.2" fill="#ffffff" opacity="0.14"/><circle cx="63.6" cy="511.7" r="1.8" fill="#ffffff" opacity="0.17"/><circle cx="637.3" cy="504.4" r="3.3" fill="#ffffff" opacity="0.19"/><circle cx="499.9" cy="330.0" r="1.1" fill="#ffffff" opacity="0.08"/><circle cx="328.4" cy="344.8" r="1.3" fill="#ffffff" opacity="0.14"/><circle cx="355.5" cy="111.6" r="1.5" fill="#ffffff" opacity="0.23"/><circle cx="97.4" cy="724.6" r="2.1" fill="#ffffff" opacity="0.11"/><circle cx="605.9" cy="257.3" r="2.3" fill="#ffffff" opacity="0.15"/><circle cx="568.9" cy="482.1" r="3.2" fill="#ffffff" opacity="0.17"/><circle cx="573.1" cy="134.9" r="1.5" fill="#ffffff" opacity="0.26"/><circle cx="286.8" cy="835.5" r="2.6" fill="#ffffff" opacity="0.14"/><circle cx="676.1" cy="944.0" r="1.5" fill="#ffffff" opacity="0.09"/><circle cx="443.2" cy="550.5" r="2.7" fill="#ffffff" opacity="0.25"/><circle cx="708.0" cy="450.3" r="1.3" fill="#ffffff" opacity="0.07"/><circle cx="464.5" cy="708.0" r="1.5" fill="#ffffff" opacity="0.11"/><circle cx="660.2" cy="505.5" r="2.2" fill="#ffffff" opacity="0.25"/><circle cx="604.8" cy="423.7" r="2.0" fill="#ffffff" opacity="0.22"/><circle cx="668.3" cy="114.7" r="3.0" fill="#ffffff" opacity="0.14"/><circle cx="324.4" cy="103.9" r="1.2" fill="#ffffff" opacity="0.20"/><circle cx="499.8" cy="429.8" r="1.2" fill="#ffffff" opacity="0.08"/><circle cx="151.4" cy="487.8" r="2.8" fill="#ffffff" opacity="0.17"/><circle cx="652.4" cy="450.5" r="1.9" fill="#ffffff" opacity="0.25"/><circle cx="157.2" cy="702.9" r="1.8" fill="#ffffff" opacity="0.20"/><circle cx="39.9" cy="365.3" r="3.1" fill="#ffffff" opacity="0.15"/><circle cx="782.2" cy="571.0" r="1.2" fill="#ffffff" opacity="0.13"/>

<!-- Shoulders -->
<path d="M 120 1000 C 140 800 250 720 400 720 C 550 720 660 800 680 1000 Z" fill="url(#figure)" opacity="0.9"/>
<!-- Head -->
<ellipse cx="400" cy="470" rx="168" ry="200" fill="url(#figure)"/>
<!-- Rim light -->
<path d="M 400 270 A 168 200 0 0 1 568 470" stroke="#67e8f9" stroke-width="6" fill="none" opacity="0.7" stroke-linecap="round"/>
<path d="M 400 720 C 550 720 660 800 680 1000" stroke="#67e8f9" stroke-width="4" fill="none" opacity="0.4"/>

<rect width="800" height="1000" fill="url(#scan)"/>
</svg>