<svg xmlns="http://www.w3.org/2000/svg" width="1200" height="750" viewBox="0 0 1200 750" fill="none">
<defs>
  <radialGradient id="wash" cx="30%" cy="10%" r="90%">
    <stop offset="0" stop-color="#7c3aed" stop-opacity="0.34"/>
    <stop offset="1" stop-color="#0a0f20" stop-opacity="0"/>
  </radialGradient>
  <radialGradient id="wash2" cx="85%" cy="95%" r="70%">
    <stop offset="0" stop-color="#06b6d4" stop-opacity="0.26"/>
    <stop offset="1" stop-color="#0a0f20" stop-opacity="0"/>
  </radialGradient>
  <pattern id="mesh" width="48" height="48" patternUnits="userSpaceOnUse">
    <path d="M 48 0 L 0 0 0 48" fill="none" stroke="#ffffff" stroke-opacity="0.05" stroke-width="1"/>
  </pattern>
</defs>
<rect width="1200" height="750" fill="#0a0f20"/>
<rect width="1200" height="750" fill="url(#mesh)"/>
<rect width="1200" height="750" fill="url(#wash)"/>
<rect width="1200" height="750" fill="url(#wash2)"/>
<g><line x1="458.2" y1="9.6" x2="448.8" y2="18.7" stroke="#7c3aed" stroke-width="1" opacity="0.28"/><line x1="458.2" y1="9.6" x2="390.1" y2="106.0" stroke="#7c3aed" stroke-width="1" opacity="0.28"/><line x1="695.2" y1="272.9" x2="670.1" y2="379.6" stroke="#7c3aed" stroke-width="1" opacity="0.28"/><line x1="695.2" y1="272.9" x2="626.2" y2="361.5" stroke="#7c3aed" stroke-width="1" opacity="0.28"/><line x1="1124.8" y1="100.2" x2="1068.8" y2="114.9" stroke="#7c3aed" stroke-width="1" opacity="0.28"/><line x1="1124.8" y1="100.2" x2="1070.7" y2="255.8" stroke="#7c3aed" stroke-width="1" opacity="0.28"/><line x1="390.1" y1="106.0" x2="448.8" y2="18.7" stroke="#7c3aed" stroke-width="1" opacity="0.28"/><line x1="390.1" y1="106.0" x2="458.2" y2="9.6" stroke="#7c3aed" stroke-width="1" opacity="0.28"/><line x1="598.5" y1="636.0" x2="702.7" y2="636.3" stroke="#7c3aed" stroke-width="1" opacity="0.28"/><line x1="598.5" y1="636.0" x2="533.9" y2="733.2" stroke="#7c3aed" stroke-width="1" opacity="0.28"/><line x1="1070.7" y1="255.8" x2="1068.8" y2="114.9" stroke="#7c3aed" stroke-width="1" opacity="0.28"/><line x1="1070.7" y1="255.8" x2="1124.8" y2="100.2" stroke="#7c3aed" stroke-width="1" opacity="0.28"/><line x1="670.1" y1="379.6" x2="626.2" y2="361.5" stroke="#7c3aed" stroke-width="1" opacity="0.28"/><line x1="670.1" y1="379.6" x2="695.2" y2="272.9" stroke="#7c3aed" stroke-width="1" opacity="0.28"/><line x1="721.7" y1="735.6" x2="702.7" y2="636.3" stroke="#7c3aed" stroke-width="1" opacity="0.28"/><line x1="721.7" y1="735.6" x2="598.5" y2="636.0" stroke="#7c3aed" stroke-width="1" opacity="0.28"/><line x1="991.6" y1="547.0" x2="937.5" y2="617.3" stroke="#7c3aed" stroke-width="1" opacity="0.28"/><line x1="991.6" y1="547.0" x2="1066.0" y2="649.3" stroke="#7c3aed" stroke-width="1" opacity="0.28"/><line x1="1168.4" y1="527.5" x2="1066.0" y2="649.3" stroke="#7c3aed" stroke-width="1" opacity="0.28"/><line x1="1168.4" y1="527.5" x2="991.6" y2="547.0" stroke="#7c3aed" stroke-width="1" opacity="0.28"/><line x1="1068.8" y1="114.9" x2="1124.8" y2="100.2" stroke="#7c3aed" stroke-width="1" opacity="0.28"/><line x1="1068.8" y1="114.9" x2="1070.7" y2="255.8" stroke="#7c3aed" stroke-width="1" opacity="0.28"/><line x1="702.7" y1="636.3" x2="721.7" y2="735.6" stroke="#7c3aed" stroke-width="1" opacity="0.28"/><line x1="702.7" y1="636.3" x2="598.5" y2="636.0" stroke="#7c3aed" stroke-width="1" opacity="0.28"/><line x1="175.3" y1="603.6" x2="174.4" y2="541.4" stroke="#7c3aed" stroke-width="1" opacity="0.28"/><line x1="175.3" y1="603.6" x2="201.3" y2="677.7" stroke="#7c3aed" stroke-width="1" opacity="0.28"/><line x1="195.2" y1="340.6" x2="32.1" y2="316.3" stroke="#7c3aed" stroke-width="1" opacity="0.28"/><line x1="195.2" y1="340.6" x2="174.4" y2="541.4" stroke="#7c3aed" stroke-width="1" opacity="0.28"/><line x1="626.2" y1="361.5" x2="670.1" y2="379.6" stroke="#7c3aed" stroke-width="1" opacity="0.28"/><line x1="626.2" y1="361.5" x2="695.2" y2="272.9" stroke="#7c3aed" stroke-width="1" opacity="0.28"/><line x1="924.6" y1="174.8" x2="1068.8" y2="114.9" stroke="#7c3aed" stroke-width="1" opacity="0.28"/><line x1="924.6" y1="174.8" x2="1070.7" y2="255.8" stroke="#7c3aed" stroke-width="1" opacity="0.28"/><line x1="81.0" y1="622.8" x2="175.3" y2="603.6" stroke="#7c3aed" stroke-width="1" opacity="0.28"/><line x1="81.0" y1="622.8" x2="161.8" y2="693.4" stroke="#7c3aed" stroke-width="1" opacity="0.28"/><line x1="448.8" y1="18.7" x2="458.2" y2="9.6" stroke="#7c3aed" stroke-width="1" opacity="0.28"/><line x1="448.8" y1="18.7" x2="390.1" y2="106.0" stroke="#7c3aed" stroke-width="1" opacity="0.28"/><line x1="161.8" y1="693.4" x2="201.3" y2="677.7" stroke="#7c3aed" stroke-width="1" opacity="0.28"/><line x1="161.8" y1="693.4" x2="175.3" y2="603.6" stroke="#7c3aed" stroke-width="1" opacity="0.28"/><line x1="32.1" y1="316.3" x2="195.2" y2="340.6" stroke="#7c3aed" stroke-width="1" opacity="0.28"/><line x1="32.1" y1="316.3" x2="174.4" y2="541.4" stroke="#7c3aed" stroke-width="1" opacity="0.28"/><line x1="201.3" y1="677.7" x2="161.8" y2="693.4" stroke="#7c3aed" stroke-width="1" opacity="0.28"/><line x1="201.3" y1="677.7" x2="175.3" y2="603.6" stroke="#7c3aed" stroke-width="1" opacity="0.28"/><line x1="174.4" y1="541.4" x2="175.3" y2="603.6" stroke="#7c3aed" stroke-width="1" opacity="0.28"/><line x1="174.4" y1="541.4" x2="81.0" y2="622.8" stroke="#7c3aed" stroke-width="1" opacity="0.28"/><line x1="533.9" y1="733.2" x2="598.5" y2="636.0" stroke="#7c3aed" stroke-width="1" opacity="0.28"/><line x1="533.9" y1="733.2" x2="721.7" y2="735.6" stroke="#7c3aed" stroke-width="1" opacity="0.28"/><line x1="1066.0" y1="649.3" x2="991.6" y2="547.0" stroke="#7c3aed" stroke-width="1" opacity="0.28"/><line x1="1066.0" y1="649.3" x2="937.5" y2="617.3" stroke="#7c3aed" stroke-width="1" opacity="0.28"/><line x1="937.5" y1="617.3" x2="991.6" y2="547.0" stroke="#7c3aed" stroke-width="1" opacity="0.28"/><line x1="937.5" y1="617.3" x2="1066.0" y2="649.3" stroke="#7c3aed" stroke-width="1" opacity="0.28"/><line x1="517.0" y1="490.3" x2="598.5" y2="636.0" stroke="#7c3aed" stroke-width="1" opacity="0.28"/><line x1="517.0" y1="490.3" x2="626.2" y2="361.5" stroke="#7c3aed" stroke-width="1" opacity="0.28"/><circle cx="458.2" cy="9.6" r="2.9" fill="#7c3aed" opacity="0.85"/><circle cx="695.2" cy="272.9" r="2.2" fill="#7c3aed" opacity="0.85"/><circle cx="1124.8" cy="100.2" r="5.4" fill="#06b6d4" opacity="0.85"/><circle cx="390.1" cy="106.0" r="4.1" fill="#06b6d4" opacity="0.85"/><circle cx="598.5" cy="636.0" r="5.3" fill="#06b6d4" opacity="0.85"/><circle cx="1070.7" cy="255.8" r="3.0" fill="#7c3aed" opacity="0.85"/><circle cx="670.1" cy="379.6" r="5.3" fill="#7c3aed" opacity="0.85"/><circle cx="721.7" cy="735.6" r="4.0" fill="#7c3aed" opacity="0.85"/><circle cx="991.6" cy="547.0" r="2.3" fill="#7c3aed" opacity="0.85"/><circle cx="1168.4" cy="527.5" r="4.7" fill="#06b6d4" opacity="0.85"/><circle cx="1068.8" cy="114.9" r="3.9" fill="#7c3aed" opacity="0.85"/><circle cx="702.7" cy="636.3" r="4.1" fill="#06b6d4" opacity="0.85"/><circle cx="175.3" cy="603.6" r="3.9" fill="#06b6d4" opacity="0.85"/><circle cx="195.2" cy="340.6" r="3.3" fill="#7c3aed" opacity="0.85"/><circle cx="626.2" cy="361.5" r="4.7" fill="#7c3aed" opacity="0.85"/><circle cx="924.6" cy="174.8" r="3.7" fill="#7c3aed" opacity="0.85"/><circle cx="81.0" cy="622.8" r="4.5" fill="#7c3aed" opacity="0.85"/><circle cx="448.8" cy="18.7" r="2.9" fill="#06b6d4" opacity="0.85"/><circle cx="161.8" cy="693.4" r="5.5" fill="#06b6d4" opacity="0.85"/><circle cx="32.1" cy="316.3" r="2.7" fill="#06b6d4" opacity="0.85"/><circle cx="201.3" cy="677.7" r="5.4" fill="#7c3aed" opacity="0.85"/><circle cx="174.4" cy="541.4" r="5.5" fill="#06b6d4" opacity="0.85"/><circle cx="533.9" cy="733.2" r="4.8" fill="#06b6d4" opacity="0.85"/><circle cx="1066.0" cy="649.3" r="5.0" fill="#7c3aed" opacity="0.85"/><circle cx="937.5" cy="617.3" r="2.2" fill="#06b6d4" opacity="0.85"/><circle cx="517.0" cy="490.3" r="2.4" fill="#06b6d4" opacity="0.85"/></g>
</svg>