<svg xmlns="http://www.w3.org/2000/svg" width="1200" height="750" viewBox="0 0 1200 750" fill="none">
<defs>
  <radialGradient id="wash" cx="30%" cy="10%" r="90%">
    <stop offset="0" stop-color="#7c3aed" stop-opacity="0.34"/>
    <stop offset="1" stop-color="#0a0f20" stop-opacity="0"/>
  </radialGradient>
  <radialGradient id="wash2" cx="85%" cy="95%" r="70%">
    <stop offset="0" stop-color="#f59e0b" stop-opacity="0.26"/>
    <stop offset="1" stop-color="#0a0f20" stop-opacity="0"/>
  </radialGradient>
  <pattern id="mesh" width="48" height="48" patternUnits="userSpaceOnUse">
    <path d="M 48 0 L 0 0 0 48" fill="none" stroke="#ffffff" stroke-opacity="0.05" stroke-width="1"/>
  </pattern>
</defs>
<rect width="1200" height="750" fill="#0a0f20"/>
<rect width="1200" height="750" fill="url(#mesh)"/>
<rect width="1200" height="750" fill="url(#wash)"/>
<rect width="1200" height="750" fill="url(#wash2)"/>
<g><defs><linearGradient id="bar" x1="0" y1="1" x2="0" y2="0"><stop offset="0" stop-color="#7c3aed" stop-opacity="0.2"/><stop offset="1" stop-color="#f59e0b"/></linearGradient></defs><rect x="6.3" y="403.4" width="16.0" height="346.6" rx="3" fill="url(#bar)" opacity="0.76"/><rect x="34.9" y="628.1" width="16.0" height="121.9" rx="3" fill="url(#bar)" opacity="0.67"/><rect x="63.4" y="243.4" width="16.0" height="506.6" rx="3" fill="url(#bar)" opacity="0.35"/><rect x="92.0" y="471.3" width="16.0" height="278.7" rx="3" fill="url(#bar)" opacity="0.71"/><rect x="120.6" y="245.7" width="16.0" height="504.3" rx="3" fill="url(#bar)" opacity="0.66"/><rect x="149.1" y="433.3" width="16.0" height="316.7" rx="3" fill="url(#bar)" opacity="0.64"/><rect x="177.7" y="291.0" width="16.0" height="459.0" rx="3" fill="url(#bar)" opacity="0.71"/><rect x="206.3" y="227.7" width="16.0" height="522.3" rx="3" fill="url(#bar)" opacity="0.34"/><rect x="234.9" y="648.7" width="16.0" height="101.3" rx="3" fill="url(#bar)" opacity="0.58"/><rect x="263.4" y="416.1" width="16.0" height="333.9" rx="3" fill="url(#bar)" opacity="0.68"/><rect x="292.0" y="351.1" width="16.0" height="398.9" rx="3" fill="url(#bar)" opacity="0.82"/><rect x="320.6" y="582.1" width="16.0" height="167.9" rx="3" fill="url(#bar)" opacity="0.78"/><rect x="349.1" y="531.4" width="16.0" height="218.6" rx="3" fill="url(#bar)" opacity="0.41"/><rect x="377.7" y="610.6" width="16.0" height="139.4" rx="3" fill="url(#bar)" opacity="0.77"/><rect x="406.3" y="583.2" width="16.0" height="166.8" rx="3" fill="url(#bar)" opacity="0.73"/><rect x="434.9" y="385.4" width="16.0" height="364.6" rx="3" fill="url(#bar)" opacity="0.83"/><rect x="463.4" y="413.0" width="16.0" height="337.0" rx="3" fill="url(#bar)" opacity="0.61"/><rect x="492.0" y="311.6" width="16.0" height="438.4" rx="3" fill="url(#bar)" opacity="0.73"/><rect x="520.6" y="434.8" width="16.0" height="315.2" rx="3" fill="url(#bar)" opacity="0.43"/><rect x="549.1" y="640.3" width="16.0" height="109.7" rx="3" fill="url(#bar)" opacity="0.79"/><rect x="577.7" y="449.2" width="16.0" height="300.8" rx="3" fill="url(#bar)" opacity="0.64"/><rect x="606.3" y="488.8" width="16.0" height="261.2" rx="3" fill="url(#bar)" opacity="0.65"/><rect x="634.9" y="559.7" width="16.0" height="190.3" rx="3" fill="url(#bar)" opacity="0.51"/><rect x="663.4" y="432.2" width="16.0" height="317.8" rx="3" fill="url(#bar)" opacity="0.73"/><rect x="692.0" y="366.8" width="16.0" height="383.2" rx="3" fill="url(#bar)" opacity="0.79"/><rect x="720.6" y="491.2" width="16.0" height="258.8" rx="3" fill="url(#bar)" opacity="0.37"/><rect x="749.1" y="316.6" width="16.0" height="433.4" rx="3" fill="url(#bar)" opacity="0.68"/><rect x="777.7" y="517.0" width="16.0" height="233.0" rx="3" fill="url(#bar)" opacity="0.32"/><rect x="806.3" y="504.6" width="16.0" height="245.4" rx="3" fill="url(#bar)" opacity="0.85"/><rect x="834.9" y="501.1" width="16.0" height="248.9" rx="3" fill="url(#bar)" opacity="0.66"/><rect x="863.4" y="327.7" width="16.0" height="422.3" rx="3" fill="url(#bar)" opacity="0.63"/><rect x="892.0" y="298.3" width="16.0" height="451.7" rx="3" fill="url(#bar)" opacity="0.73"/><rect x="920.6" y="610.6" width="16.0" height="139.4" rx="3" fill="url(#bar)" opacity="0.77"/><rect x="949.1" y="613.1" width="16.0" height="136.9" rx="3" fill="url(#bar)" opacity="0.74"/><rect x="977.7" y="254.3" width="16.0" height="495.7" rx="3" fill="url(#bar)" opacity="0.57"/><rect x="1006.3" y="544.9" width="16.0" height="205.1" rx="3" fill="url(#bar)" opacity="0.77"/><rect x="1034.9" y="282.6" width="16.0" height="467.4" rx="3" fill="url(#bar)" opacity="0.57"/><rect x="1063.4" y="530.7" width="16.0" height="219.3" rx="3" fill="url(#bar)" opacity="0.63"/><rect x="1092.0" y="379.6" width="16.0" height="370.4" rx="3" fill="url(#bar)" opacity="0.50"/><rect x="1120.6" y="272.3" width="16.0" height="477.7" rx="3" fill="url(#bar)" opacity="0.68"/><rect x="1149.1" y="291.6" width="16.0" height="458.4" rx="3" fill="url(#bar)" opacity="0.73"/><rect x="1177.7" y="455.0" width="16.0" height="295.0" rx="3" fill="url(#bar)" opacity="0.37"/></g>
</svg>