<svg xmlns="http://www.w3.org/2000/svg" width="1200" height="750" viewBox="0 0 1200 750" fill="none">
<defs>
  <radialGradient id="wash" cx="30%" cy="10%" r="90%">
    <stop offset="0" stop-color="#f59e0b" stop-opacity="0.34"/>
    <stop offset="1" stop-color="#0a0f20" stop-opacity="0"/>
  </radialGradient>
  <radialGradient id="wash2" cx="85%" cy="95%" r="70%">
    <stop offset="0" stop-color="#7c3aed" stop-opacity="0.26"/>
    <stop offset="1" stop-color="#0a0f20" stop-opacity="0"/>
  </radialGradient>
  <pattern id="mesh" width="48" height="48" patternUnits="userSpaceOnUse">
    <path d="M 48 0 L 0 0 0 48" fill="none" stroke="#ffffff" stroke-opacity="0.05" stroke-width="1"/>
  </pattern>
</defs>
<rect width="1200" height="750" fill="#0a0f20"/>
<rect width="1200" height="750" fill="url(#mesh)"/>
<rect width="1200" height="750" fill="url(#wash)"/>
<rect width="1200" height="750" fill="url(#wash2)"/>
<g><rect x="6.0" y="6.0" width="63.0" height="63.0" rx="4" fill="#f59e0b" opacity="0.49"/><rect x="6.0" y="306.0" width="63.0" height="63.0" rx="4" fill="#f59e0b" opacity="0.26"/><rect x="6.0" y="606.0" width="63.0" height="63.0" rx="4" fill="#f59e0b" opacity="0.41"/><rect x="6.0" y="681.0" width="63.0" height="63.0" rx="4" fill="#f59e0b" opacity="0.39"/><rect x="81.0" y="6.0" width="63.0" height="63.0" rx="4" fill="#f59e0b" opacity="0.13"/><rect x="81.0" y="306.0" width="63.0" height="63.0" rx="4" fill="#f59e0b" opacity="0.13"/><rect x="81.0" y="456.0" width="63.0" height="63.0" rx="4" fill="#f59e0b" opacity="0.31"/><rect x="81.0" y="531.0" width="63.0" height="63.0" rx="4" fill="#f59e0b" opacity="0.25"/><rect x="81.0" y="606.0" width="63.0" height="63.0" rx="4" fill="#f59e0b" opacity="0.25"/><rect x="81.0" y="681.0" width="63.0" height="63.0" rx="4" fill="#f59e0b" opacity="0.32"/><rect x="156.0" y="156.0" width="63.0" height="63.0" rx="4" fill="#f59e0b" opacity="0.37"/><rect x="156.0" y="381.0" width="63.0" height="63.0" rx="4" fill="#f59e0b" opacity="0.40"/><rect x="231.0" y="156.0" width="63.0" height="63.0" rx="4" fill="#7c3aed" opacity="0.30"/><rect x="231.0" y="381.0" width="63.0" height="63.0" rx="4" fill="#f59e0b" opacity="0.24"/><rect x="306.0" y="81.0" width="63.0" height="63.0" rx="4" fill="#f59e0b" opacity="0.16"/><rect x="306.0" y="156.0" width="63.0" height="63.0" rx="4" fill="#f59e0b" opacity="0.51"/><rect x="306.0" y="231.0" width="63.0" height="63.0" rx="4" fill="#f59e0b" opacity="0.48"/><rect x="306.0" y="306.0" width="63.0" height="63.0" rx="4" fill="#7c3aed" opacity="0.27"/><rect x="306.0" y="456.0" width="63.0" height="63.0" rx="4" fill="#7c3aed" opacity="0.24"/><rect x="306.0" y="606.0" width="63.0" height="63.0" rx="4" fill="#f59e0b" opacity="0.19"/><rect x="381.0" y="6.0" width="63.0" height="63.0" rx="4" fill="#f59e0b" opacity="0.34"/><rect x="381.0" y="231.0" width="63.0" height="63.0" rx="4" fill="#f59e0b" opacity="0.44"/><rect x="381.0" y="681.0" width="63.0" height="63.0" rx="4" fill="#f59e0b" opacity="0.17"/><rect x="456.0" y="231.0" width="63.0" height="63.0" rx="4" fill="#f59e0b" opacity="0.17"/><rect x="456.0" y="306.0" width="63.0" height="63.0" rx="4" fill="#f59e0b" opacity="0.19"/><rect x="456.0" y="381.0" width="63.0" height="63.0" rx="4" fill="#f59e0b" opacity="0.17"/><rect x="456.0" y="456.0" width="63.0" height="63.0" rx="4" fill="#7c3aed" opacity="0.46"/><rect x="456.0" y="531.0" width="63.0" height="63.0" rx="4" fill="#7c3aed" opacity="0.14"/><rect x="531.0" y="81.0" width="63.0" height="63.0" rx="4" fill="#f59e0b" opacity="0.39"/><rect x="531.0" y="156.0" width="63.0" height="63.0" rx="4" fill="#7c3aed" opacity="0.46"/><rect x="531.0" y="531.0" width="63.0" height="63.0" rx="4" fill="#f59e0b" opacity="0.17"/><rect x="531.0" y="606.0" width="63.0" height="63.0" rx="4" fill="#7c3aed" opacity="0.41"/><rect x="531.0" y="681.0" width="63.0" height="63.0" rx="4" fill="#7c3aed" opacity="0.22"/><rect x="606.0" y="81.0" width="63.0" height="63.0" rx="4" fill="#f59e0b" opacity="0.48"/><rect x="606.0" y="156.0" width="63.0" height="63.0" rx="4" fill="#f59e0b" opacity="0.29"/><rect x="606.0" y="231.0" width="63.0" height="63.0" rx="4" fill="#7c3aed" opacity="0.17"/><rect x="606.0" y="381.0" width="63.0" height="63.0" rx="4" fill="#f59e0b" opacity="0.33"/><rect x="606.0" y="681.0" width="63.0" height="63.0" rx="4" fill="#f59e0b" opacity="0.16"/><rect x="681.0" y="231.0" width="63.0" height="63.0" rx="4" fill="#7c3aed" opacity="0.51"/><rect x="681.0" y="456.0" width="63.0" height="63.0" rx="4" fill="#7c3aed" opacity="0.44"/><rect x="681.0" y="606.0" width="63.0" height="63.0" rx="4" fill="#f59e0b" opacity="0.45"/><rect x="681.0" y="681.0" width="63.0" height="63.0" rx="4" fill="#f59e0b" opacity="0.34"/><rect x="756.0" y="6.0" width="63.0" height="63.0" rx="4" fill="#f59e0b" opacity="0.13"/><rect x="756.0" y="231.0" width="63.0" height="63.0" rx="4" fill="#7c3aed" opacity="0.14"/><rect x="756.0" y="306.0" width="63.0" height="63.0" rx="4" fill="#f59e0b" opacity="0.13"/><rect x="756.0" y="381.0" width="63.0" height="63.0" rx="4" fill="#f59e0b" opacity="0.40"/><rect x="756.0" y="456.0" width="63.0" height="63.0" rx="4" fill="#f59e0b" opacity="0.15"/><rect x="756.0" y="531.0" width="63.0" height="63.0" rx="4" fill="#f59e0b" opacity="0.19"/><rect x="831.0" y="6.0" width="63.0" height="63.0" rx="4" fill="#f59e0b" opacity="0.38"/><rect x="831.0" y="231.0" width="63.0" height="63.0" rx="4" fill="#f59e0b" opacity="0.41"/><rect x="831.0" y="306.0" width="63.0" height="63.0" rx="4" fill="#f59e0b" opacity="0.12"/><rect x="831.0" y="531.0" width="63.0" height="63.0" rx="4" fill="#f59e0b" opacity="0.15"/><rect x="831.0" y="606.0" width="63.0" height="63.0" rx="4" fill="#f59e0b" opacity="0.48"/><rect x="831.0" y="681.0" width="63.0" height="63.0" rx="4" fill="#f59e0b" opacity="0.44"/><rect x="906.0" y="6.0" width="63.0" height="63.0" rx="4" fill="#f59e0b" opacity="0.50"/><rect x="906.0" y="156.0" width="63.0" height="63.0" rx="4" fill="#f59e0b" opacity="0.30"/><rect x="906.0" y="606.0" width="63.0" height="63.0" rx="4" fill="#7c3aed" opacity="0.32"/><rect x="981.0" y="6.0" width="63.0" height="63.0" rx="4" fill="#f59e0b" opacity="0.46"/><rect x="981.0" y="231.0" width="63.0" height="63.0" rx="4" fill="#f59e0b" opacity="0.13"/><rect x="981.0" y="456.0" width="63.0" height="63.0" rx="4" fill="#f59e0b" opacity="0.48"/><rect x="981.0" y="681.0" width="63.0" height="63.0" rx="4" fill="#f59e0b" opacity="0.36"/><rect x="1056.0" y="6.0" width="63.0" height="63.0" rx="4" fill="#f59e0b" opacity="0.22"/><rect x="1056.0" y="81.0" width="63.0" height="63.0" rx="4" fill="#f59e0b" opacity="0.27"/><rect x="1056.0" y="156.0" width="63.0" height="63.0" rx="4" fill="#f59e0b" opacity="0.23"/><rect x="1056.0" y="306.0" width="63.0" height="63.0" rx="4" fill="#f59e0b" opacity="0.31"/><rect x="1056.0" y="606.0" width="63.0" height="63.0" rx="4" fill="#f59e0b" opacity="0.36"/><rect x="1131.0" y="156.0" width="63.0" height="63.0" rx="4" fill="#f59e0b" opacity="0.19"/><rect x="1131.0" y="381.0" width="63.0" height="63.0" rx="4" fill="#f59e0b" opacity="0.44"/><rect x="1131.0" y="606.0" width="63.0" height="63.0" rx="4" fill="#f59e0b" opacity="0.43"/><rect x="1131.0" y="681.0" width="63.0" height="63.0" rx="4" fill="#7c3aed" opacity="0.42"/></g>
</svg>