<svg xmlns="http://www.w3.org/2000/svg" width="1200" height="750" viewBox="0 0 1200 750" fill="none">
<defs>
  <radialGradient id="wash" cx="30%" cy="10%" r="90%">
    <stop offset="0" stop-color="#06b6d4" stop-opacity="0.34"/>
    <stop offset="1" stop-color="#0a0f20" stop-opacity="0"/>
  </radialGradient>
  <radialGradient id="wash2" cx="85%" cy="95%" r="70%">
    <stop offset="0" stop-color="#f59e0b" stop-opacity="0.26"/>
    <stop offset="1" stop-color="#0a0f20" stop-opacity="0"/>
  </radialGradient>
  <pattern id="mesh" width="48" height="48" patternUnits="userSpaceOnUse">
    <path d="M 48 0 L 0 0 0 48" fill="none" stroke="#ffffff" stroke-opacity="0.05" stroke-width="1"/>
  </pattern>
</defs>
<rect width="1200" height="750" fill="#0a0f20"/>
<rect width="1200" height="750" fill="url(#mesh)"/>
<rect width="1200" height="750" fill="url(#wash)"/>
<rect width="1200" height="750" fill="url(#wash2)"/>
<g><path d="M -20 225.0 L 0 225.0 L 40 245.0 L 80 247.8 L 120 270.6 L 160 265.7 L 200 264.3 L 240 269.3 L 280 263.7 L 320 257.5 L 360 236.7 L 400 225.0 L 440 206.7 L 480 203.9 L 520 195.0 L 560 195.8 L 600 186.6 L 640 162.6 L 680 177.0 L 720 202.6 L 760 205.5 L 800 225.0 L 840 241.9 L 880 262.6 L 920 259.7 L 960 261.2 L 1000 264.1 L 1040 279.7 L 1080 275.5 L 1120 260.0 L 1160 244.2 L 1200 225.0" fill="none" stroke="#06b6d4" stroke-width="2" opacity="0.50" stroke-linecap="round"/><path d="M -20 375.0 L 0 375.0 L 40 397.3 L 80 431.1 L 120 436.1 L 160 441.7 L 200 437.6 L 240 408.3 L 280 385.0 L 320 355.3 L 360 330.5 L 400 311.8 L 440 310.5 L 480 303.7 L 520 303.7 L 560 345.8 L 600 375.0 L 640 405.1 L 680 417.1 L 720 460.3 L 760 428.0 L 800 415.1 L 840 415.1 L 880 394.4 L 920 354.7 L 960 327.1 L 1000 334.6 L 1040 316.8 L 1080 313.2 L 1120 313.2 L 1160 349.0 L 1200 375.0" fill="none" stroke="#f59e0b" stroke-width="3" opacity="0.38" stroke-linecap="round"/><path d="M -20 525.0 L 0 525.0 L 40 570.5 L 80 636.6 L 120 613.7 L 160 614.5 L 200 567.1 L 240 525.0 L 280 481.0 L 320 416.1 L 360 445.1 L 400 414.4 L 440 485.7 L 480 525.0 L 520 573.0 L 560 585.3 L 600 645.9 L 640 590.4 L 680 572.4 L 720 525.0 L 760 460.4 L 800 412.8 L 840 448.4 L 880 461.9 L 920 467.1 L 960 525.0 L 1000 566.1 L 1040 615.0 L 1080 643.6 L 1120 580.7 L 1160 569.3 L 1200 525.0" fill="none" stroke="#06b6d4" stroke-width="4" opacity="0.26" stroke-linecap="round"/><line x1="40" y1="662.2" x2="40" y2="710" stroke="#06b6d4" stroke-width="3" opacity="0.22" stroke-linecap="round"/><line x1="66" y1="682.8" x2="66" y2="710" stroke="#06b6d4" stroke-width="3" opacity="0.21" stroke-linecap="round"/><line x1="92" y1="611.2" x2="92" y2="710" stroke="#06b6d4" stroke-width="3" opacity="0.24" stroke-linecap="round"/><line x1="118" y1="649.4" x2="118" y2="710" stroke="#06b6d4" stroke-width="3" opacity="0.33" stroke-linecap="round"/><line x1="144" y1="672.9" x2="144" y2="710" stroke="#06b6d4" stroke-width="3" opacity="0.28" stroke-linecap="round"/><line x1="170" y1="681.8" x2="170" y2="710" stroke="#06b6d4" stroke-width="3" opacity="0.21" stroke-linecap="round"/><line x1="196" y1="643.1" x2="196" y2="710" stroke="#06b6d4" stroke-width="3" opacity="0.36" stroke-linecap="round"/><line x1="222" y1="688.0" x2="222" y2="710" stroke="#06b6d4" stroke-width="3" opacity="0.13" stroke-linecap="round"/><line x1="248" y1="658.0" x2="248" y2="710" stroke="#06b6d4" stroke-width="3" opacity="0.12" stroke-linecap="round"/><line x1="274" y1="646.7" x2="274" y2="710" stroke="#06b6d4" stroke-width="3" opacity="0.15" stroke-linecap="round"/><line x1="300" y1="660.3" x2="300" y2="710" stroke="#06b6d4" stroke-width="3" opacity="0.10" stroke-linecap="round"/><line x1="326" y1="664.4" x2="326" y2="710" stroke="#06b6d4" stroke-width="3" opacity="0.24" stroke-linecap="round"/><line x1="352" y1="690.0" x2="352" y2="710" stroke="#06b6d4" stroke-width="3" opacity="0.16" stroke-linecap="round"/><line x1="378" y1="611.8" x2="378" y2="710" stroke="#06b6d4" stroke-width="3" opacity="0.13" stroke-linecap="round"/><line x1="404" y1="639.3" x2="404" y2="710" stroke="#06b6d4" stroke-width="3" opacity="0.20" stroke-linecap="round"/><line x1="430" y1="688.1" x2="430" y2="710" stroke="#06b6d4" stroke-width="3" opacity="0.26" stroke-linecap="round"/><line x1="456" y1="661.9" x2="456" y2="710" stroke="#06b6d4" stroke-width="3" opacity="0.38" stroke-linecap="round"/><line x1="482" y1="673.9" x2="482" y2="710" stroke="#06b6d4" stroke-width="3" opacity="0.17" stroke-linecap="round"/><line x1="508" y1="633.7" x2="508" y2="710" stroke="#06b6d4" stroke-width="3" opacity="0.27" stroke-linecap="round"/><line x1="534" y1="680.1" x2="534" y2="710" stroke="#06b6d4" stroke-width="3" opacity="0.38" stroke-linecap="round"/><line x1="560" y1="660.2" x2="560" y2="710" stroke="#06b6d4" stroke-width="3" opacity="0.22" stroke-linecap="round"/><line x1="586" y1="636.8" x2="586" y2="710" stroke="#06b6d4" stroke-width="3" opacity="0.13" stroke-linecap="round"/><line x1="612" y1="632.5" x2="612" y2="710" stroke="#06b6d4" stroke-width="3" opacity="0.19" stroke-linecap="round"/><line x1="638" y1="647.5" x2="638" y2="710" stroke="#06b6d4" stroke-width="3" opacity="0.38" stroke-linecap="round"/><line x1="664" y1="640.9" x2="664" y2="710" stroke="#06b6d4" stroke-width="3" opacity="0.25" stroke-linecap="round"/><line x1="690" y1="669.4" x2="690" y2="710" stroke="#06b6d4" stroke-width="3" opacity="0.14" stroke-linecap="round"/><line x1="716" y1="640.6" x2="716" y2="710" stroke="#06b6d4" stroke-width="3" opacity="0.17" stroke-linecap="round"/><line x1="742" y1="692.8" x2="742" y2="710" stroke="#06b6d4" stroke-width="3" opacity="0.21" stroke-linecap="round"/><line x1="768" y1="676.0" x2="768" y2="710" stroke="#06b6d4" stroke-width="3" opacity="0.25" stroke-linecap="round"/><line x1="794" y1="698.1" x2="794" y2="710" stroke="#06b6d4" stroke-width="3" opacity="0.21" stroke-linecap="round"/><line x1="820" y1="691.9" x2="820" y2="710" stroke="#06b6d4" stroke-width="3" opacity="0.35" stroke-linecap="round"/><line x1="846" y1="623.3" x2="846" y2="710" stroke="#06b6d4" stroke-width="3" opacity="0.39" stroke-linecap="round"/><line x1="872" y1="679.2" x2="872" y2="710" stroke="#06b6d4" stroke-width="3" opacity="0.15" stroke-linecap="round"/><line x1="898" y1="690.8" x2="898" y2="710" stroke="#06b6d4" stroke-width="3" opacity="0.22" stroke-linecap="round"/><line x1="924" y1="630.2" x2="924" y2="710" stroke="#06b6d4" stroke-width="3" opacity="0.32" stroke-linecap="round"/><line x1="950" y1="634.5" x2="950" y2="710" stroke="#06b6d4" stroke-width="3" opacity="0.28" stroke-linecap="round"/><line x1="976" y1="686.6" x2="976" y2="710" stroke="#06b6d4" stroke-width="3" opacity="0.35" stroke-linecap="round"/><line x1="1002" y1="620.0" x2="1002" y2="710" stroke="#06b6d4" stroke-width="3" opacity="0.35" stroke-linecap="round"/><line x1="1028" y1="626.3" x2="1028" y2="710" stroke="#06b6d4" stroke-width="3" opacity="0.32" stroke-linecap="round"/><line x1="1054" y1="653.1" x2="1054" y2="710" stroke="#06b6d4" stroke-width="3" opacity="0.28" stroke-linecap="round"/><line x1="1080" y1="618.1" x2="1080" y2="710" stroke="#06b6d4" stroke-width="3" opacity="0.12" stroke-linecap="round"/><line x1="1106" y1="634.1" x2="1106" y2="710" stroke="#06b6d4" stroke-width="3" opacity="0.13" stroke-linecap="round"/><line x1="1132" y1="679.6" x2="1132" y2="710" stroke="#06b6d4" stroke-width="3" opacity="0.11" stroke-linecap="round"/><line x1="1158" y1="665.0" x2="1158" y2="710" stroke="#06b6d4" stroke-width="3" opacity="0.39" stroke-linecap="round"/><line x1="1184" y1="622.8" x2="1184" y2="710" stroke="#06b6d4" stroke-width="3" opacity="0.15" stroke-linecap="round"/></g>
</svg>